<?xml version="1.0" encoding="utf-8"?>
<!-- Generator: Adobe Illustrator 15.1.0, SVG Export Plug-In . SVG Version: 6.00 Build 0)  -->
<!DOCTYPE svg PUBLIC "-//W3C//DTD SVG 1.1//EN" "http://www.w3.org/Graphics/SVG/1.1/DTD/svg11.dtd">
<svg version="1.1" id="Layer_1" xmlns="http://www.w3.org/2000/svg" xmlns:xlink="http://www.w3.org/1999/xlink" x="0px" y="0px"
	 width="576.9px" height="316.19px" viewBox="0 0 576.9 316.19" enable-background="new 0 0 576.9 316.19" xml:space="preserve">
<path fill-rule="evenodd" clip-rule="evenodd" fill="#F8EAD1" d="M47.014,316.191L0.048,147.611L529.885-0.001l46.967,168.58
	L47.014,316.191z M523.369,10.12L10.858,152.905L53.53,306.07l512.511-142.786L523.369,10.12z M477.662,164.501l-28.141,7.937
	l-24.822-88.014l-34.078,9.611l-5.953-21.105l96.295-27.16l5.953,21.105l-34.076,9.611L477.662,164.501z M374.783,107.307
	c-2.529-1.019-5.33-1.934-8.408-2.746c-3.125-0.797-6.402-1.289-9.83-1.477c-3.43-0.188-6.928,0.222-10.492,1.228
	c-3.959,1.116-7.545,2.799-10.76,5.048c-3.217,2.25-5.934,5.24-8.15,8.97c-2.1,3.592-3.395,7.932-3.885,13.017
	c-0.492,5.085,0.186,10.895,2.027,17.429c1.926,6.826,4.5,12.258,7.723,16.296c3.223,4.039,6.67,6.962,10.344,8.767
	c3.736,1.842,7.6,2.818,11.586,2.93c3.988,0.113,7.764-0.334,11.33-1.34c3.42-0.965,6.66-2.428,9.719-4.394
	c3.059-1.964,5.758-4.222,8.098-6.771c1.996-2.083,3.795-4.218,5.395-6.4c1.6-2.183,2.895-4.044,3.885-5.583l2.932-0.827
	l7.357,26.088c-2.393,1.994-4.682,3.88-6.869,5.656c-2.189,1.778-4.541,3.444-7.057,4.996c-3.277,2.033-6.404,3.758-9.379,5.178
	c-2.975,1.419-7.199,2.9-12.67,4.443c-8.111,2.287-15.936,3.202-23.475,2.744c-7.539-0.457-14.445-2.359-20.715-5.707
	c-6.271-3.347-11.762-8.181-16.471-14.5c-4.711-6.318-8.375-14.12-10.992-23.403c-2.439-8.647-3.357-16.854-2.752-24.619
	s2.666-14.86,6.182-21.284c3.373-6.173,8.195-11.568,14.463-16.184c6.266-4.615,13.551-8.094,21.857-10.437
	c4.592-1.295,8.805-2.207,12.639-2.734c3.832-0.527,7.43-0.816,10.791-0.868c3.535,0.005,6.795,0.207,9.783,0.603
	c2.986,0.398,5.617,0.803,7.896,1.214l7.463,26.455l-3.225,0.91C379.426,109.226,377.313,108.326,374.783,107.307z M240.645,233.803
	c-17.54,4.947-32.735,3.708-45.589-3.716c-12.853-7.424-21.732-19.832-26.638-37.226c-4.947-17.538-3.874-32.808,3.22-45.805
	c7.093-12.998,19.409-21.97,36.949-26.917c17.489-4.933,32.679-3.719,45.568,3.643c12.888,7.362,21.806,19.813,26.753,37.351
	c4.906,17.394,3.819,32.613-3.261,45.658C270.567,219.839,258.233,228.843,240.645,233.803z M251.647,169.308
	c-1.846-6.546-4.175-11.902-6.984-16.068c-2.81-4.164-5.836-7.32-9.078-9.465c-3.318-2.229-6.789-3.544-10.409-3.947
	c-3.622-0.403-7.19-0.108-10.708,0.884c-3.566,1.006-6.746,2.589-9.539,4.748c-2.792,2.16-5.095,5.076-6.906,8.751
	c-1.672,3.426-2.598,7.761-2.779,13.007c-0.182,5.247,0.623,11.046,2.415,17.396c1.833,6.498,4.138,11.821,6.917,15.969
	c2.778,4.148,5.795,7.318,9.052,9.512c3.255,2.194,6.713,3.514,10.372,3.957c3.659,0.445,7.296,0.158,10.912-0.862
	c3.615-1.02,6.863-2.687,9.744-5.003c2.88-2.315,5.128-5.283,6.745-8.904c1.798-4.093,2.721-8.586,2.765-13.477
	S253.37,175.415,251.647,169.308z M122.677,264.622l-28.141,7.938L63.76,163.44l78.707-22.199l5.953,21.105l-50.566,14.262
	L122.677,264.622z"/>
</svg>
