<?xml version="1.0" encoding="utf-8"?>
<!-- Generator: Adobe Illustrator 15.1.0, SVG Export Plug-In . SVG Version: 6.00 Build 0)  -->
<!DOCTYPE svg PUBLIC "-//W3C//DTD SVG 1.1//EN" "http://www.w3.org/Graphics/SVG/1.1/DTD/svg11.dtd">
<svg version="1.1" id="Layer_1" xmlns="http://www.w3.org/2000/svg" xmlns:xlink="http://www.w3.org/1999/xlink" x="0px" y="0px"
	 width="20.07px" height="19.98px" viewBox="0 0 20.07 19.98" enable-background="new 0 0 20.07 19.98" xml:space="preserve">
<path fill-rule="evenodd" clip-rule="evenodd" fill="#C5241B" d="M18.338,7.471l-3.189,3.188c-0.314,0.315-0.74,0.49-1.182,0.49
	c-0.047,0-0.094-0.002-0.141-0.006l-1.852-0.159l-8.074,8.71c-0.125,0.135-0.301,0.213-0.485,0.217c-0.004,0-0.008,0-0.012,0
	c-0.181,0-0.354-0.072-0.482-0.199l-1.382-1.383c-0.128-0.128-0.199-0.301-0.199-0.48c0-0.182,0.071-0.354,0.198-0.481L18.387,0.518
	c0.129-0.128,0.303-0.199,0.48-0.199c0.039,0,0.076,0.002,0.115,0.01c0.217,0.037,0.402,0.176,0.498,0.374
	C20.578,2.973,20.119,5.688,18.338,7.471z M7.247,9.761c-1.152,0.291-2.418,0.006-3.318-0.896L0.18,5.116
	c-0.242-0.241-0.242-0.633,0-0.874c0.241-0.241,0.632-0.241,0.873,0l3.333,3.332c0.315,0.315,0.826,0.315,1.141,0
	c0.314-0.314,0.314-0.825,0-1.139L2.21,3.119c-0.25-0.25-0.25-0.656,0-0.907c0.252-0.251,0.658-0.251,0.909,0l3.314,3.314
	c0.315,0.315,0.825,0.315,1.141,0c0.314-0.315,0.314-0.826,0-1.14L4.243,1.054C4,0.812,4,0.421,4.243,0.179
	c0.241-0.242,0.633-0.242,0.875,0l3.749,3.749c0.901,0.902,1.186,2.168,0.894,3.32L7.247,9.761z M13.711,12.479
	c0.086,0.008,0.172,0.012,0.256,0.012c0.234,0,0.461-0.034,0.684-0.085l5.141,5.142c0.254,0.252,0.254,0.66,0,0.913l-1.33,1.332
	c-0.252,0.252-0.662,0.252-0.912,0l-6.182-6.181l1.146-1.234L13.711,12.479z"/>
</svg>
