<?xml version="1.0" encoding="utf-8"?>
<!-- Generator: Adobe Illustrator 15.1.0, SVG Export Plug-In . SVG Version: 6.00 Build 0)  -->
<!DOCTYPE svg PUBLIC "-//W3C//DTD SVG 1.1//EN" "http://www.w3.org/Graphics/SVG/1.1/DTD/svg11.dtd">
<svg version="1.1" id="Layer_1" xmlns="http://www.w3.org/2000/svg" xmlns:xlink="http://www.w3.org/1999/xlink" x="0px" y="0px"
	 width="24px" height="21.92px" viewBox="0 0 24 21.92" enable-background="new 0 0 24 21.92" xml:space="preserve">
<path fill-rule="evenodd" clip-rule="evenodd" fill="#B48C82" d="M20,17.999h-1v-5.003H5v5.003H4c-2.209,0-4-1.791-4-4.001V7.916
	c0-2.209,1.791-4,4-4h1v5.083h14V3.916h1c2.209,0,4,1.791,4,4v6.082C24,16.208,22.209,17.999,20,17.999z M6-0.001h12v6.917H6V-0.001
	z M18,21.916H6V15h12V21.916z M17.016,15.999H6.984v2.003h10.031V15.999z M17.016,18.998H6.984v2.004h10.031V18.998z"/>
</svg>
