<?xml version="1.0" encoding="utf-8"?>
<!-- Generator: Adobe Illustrator 15.1.0, SVG Export Plug-In . SVG Version: 6.00 Build 0)  -->
<!DOCTYPE svg PUBLIC "-//W3C//DTD SVG 1.1//EN" "http://www.w3.org/Graphics/SVG/1.1/DTD/svg11.dtd">
<svg version="1.1" id="Layer_1" xmlns="http://www.w3.org/2000/svg" xmlns:xlink="http://www.w3.org/1999/xlink" x="0px" y="0px"
	 width="24.01px" height="22.01px" viewBox="0 0 24.01 22.01" enable-background="new 0 0 24.01 22.01" xml:space="preserve">
<path fill-rule="evenodd" clip-rule="evenodd" fill="#C5241B" d="M11.098,2.502c0.557,0,1.009,0.448,1.01,1v6.07
	c0.416,0.29,0.693,0.751,0.741,1.28l3.513,2.011c0.483,0.277,0.647,0.889,0.369,1.367c-0.187,0.32-0.526,0.5-0.874,0.5
	c-0.172,0-0.346-0.043-0.504-0.135l-3.51-2.008c-0.227,0.105-0.478,0.168-0.745,0.168c-0.974,0-1.766-0.785-1.766-1.75
	c0-0.594,0.3-1.116,0.757-1.433v-6.07C10.089,2.95,10.541,2.502,11.098,2.502z M23.893,9.825l-2.521,3.001
	c-0.096,0.113-0.238,0.18-0.388,0.18c-0.15,0-0.292-0.066-0.388-0.18l-2.522-3.001c-0.126-0.149-0.153-0.357-0.069-0.533
	c0.083-0.175,0.261-0.288,0.457-0.288h1.484C19.024,5,15.411,2.001,11.098,2.001c-5.007,0-9.082,4.039-9.082,9.004
	s4.074,9.004,9.082,9.004c3.232,0,6.246-1.727,7.866-4.502c0.278-0.479,0.896-0.641,1.379-0.365
	c0.481,0.277,0.647,0.889,0.368,1.367c-1.979,3.393-5.663,5.5-9.613,5.5c-6.12,0-11.099-4.938-11.099-11.004
	C-0.001,4.938,4.979,0,11.098,0c5.431,0,9.96,3.889,10.912,9.004h1.496c0.195,0,0.373,0.113,0.457,0.288
	C24.046,9.468,24.02,9.675,23.893,9.825z"/>
</svg>
