<svg width="67" height="81" viewBox="0 0 67 81" fill="none" xmlns="http://www.w3.org/2000/svg"><path d="M65.77 19.904a1.24 1.24 0 0 0 1.23-1.23v-8.607C67 6.721 64.228 4 60.816 4H11.134C7.69 4 5 6.656 5 10.066V65.01c0 3.427 2.756 6.23 6.134 6.23h12.072v8.526c0 .427.214.82.59 1.05.378.23.82.246 1.198.049l6.003-3 6.004 3c.18.082.36.131.557.131.23 0 .443-.066.64-.18.36-.23.59-.623.59-1.05V71.24l22.028-.032A6.187 6.187 0 0 0 67 65.025v-8.624a1.24 1.24 0 0 0-1.23-1.23h-8.611V19.904h8.61z" fill="#FFC226"/><path d="M60.77 15.908c.68 0 1.23-.55 1.23-1.23V6.06C62 2.719 59.228 0 55.822 0H6.133C2.694 0 0 2.662 0 6.06v54.958c0 3.432 2.752 6.224 6.134 6.224h12.072v8.528a1.23 1.23 0 0 0 1.78 1.1l6.011-3.005 6.011 3.005a1.231 1.231 0 0 0 1.78-1.1v-8.53l22.033-.04A6.187 6.187 0 0 0 62 61.018v-8.619c0-.679-.55-1.23-1.23-1.23h-8.611V15.91h8.61zM59.54 6.06v7.388h-7.381V6.142a3.688 3.688 0 0 1 3.665-3.682c2.05.001 3.716 1.616 3.716 3.6zM31.979 55.824a1.24 1.24 0 0 0-.43.384 8.59 8.59 0 0 1-11.264-.235 8.634 8.634 0 0 1-2.841-6.386c0-4.748 3.863-8.61 8.61-8.61 4.749 0 8.612 3.862 8.612 8.61a8.611 8.611 0 0 1-2.687 6.237zm-.651 17.956l-4.78-2.39a1.23 1.23 0 0 0-1.1 0l-4.781 2.39V59.254a11.044 11.044 0 0 0 10.661.063V73.78zm2.46-16.28a11.073 11.073 0 0 0 3.338-7.913c0-6.105-4.966-11.07-11.071-11.07-6.105 0-11.072 4.965-11.072 11.07 0 2.92 1.168 5.73 3.223 7.801v7.394H6.134c-2.026 0-3.674-1.689-3.674-3.764V6.06c0-2.019 1.614-3.6 3.674-3.6H50.93a6.108 6.108 0 0 0-1.232 3.682v54.876c0 1.4.467 2.693 1.251 3.731l-17.16.03V57.5zm25.752-3.87v7.388c0 2.017-1.701 3.72-3.717 3.723-2.02-.01-3.664-1.679-3.664-3.723v-7.389h7.38z" fill="#282828"/><path d="M26.055 43.438a6.157 6.157 0 0 0-6.151 6.15c0 3.39 2.759 6.15 6.15 6.15a6.157 6.157 0 0 0 6.151-6.15 6.156 6.156 0 0 0-6.15-6.15zm0 9.84a3.694 3.694 0 0 1-3.69-3.69 3.694 3.694 0 0 1 3.69-3.69 3.694 3.694 0 0 1 3.69 3.69 3.694 3.694 0 0 1-3.69 3.69zM42.48 24.93H9.676a1.23 1.23 0 1 0 0 2.46H42.48a1.23 1.23 0 1 0 0-2.46zm-4.919 4.918H14.598a1.23 1.23 0 1 0 0 2.46h22.963a1.23 1.23 0 1 0 0-2.46zm4.919-9.84h-4.92a1.23 1.23 0 0 0 0 2.46h4.92a1.23 1.23 0 0 0 0-2.46zm-32.804 2.46H32.64a1.23 1.23 0 0 0 0-2.46H9.676a1.23 1.23 0 1 0 0 2.46zm4.142-6.792a1.228 1.228 0 0 0 1.726-.216l2.857-3.672 2.856 3.672a1.23 1.23 0 0 0 1.942 0l2.857-3.672 2.856 3.672a1.23 1.23 0 0 0 1.942 0l2.856-3.672 2.855 3.672a1.23 1.23 0 1 0 1.942-1.51l-3.826-4.92a1.23 1.23 0 0 0-1.942 0l-2.856 3.67-2.856-3.67a1.23 1.23 0 0 0-1.942 0l-2.856 3.67-2.856-3.67a1.23 1.23 0 0 0-1.942 0l-3.828 4.92a1.23 1.23 0 0 0 .215 1.726z" fill="#282828"/></svg>