<svg width="38" height="38" viewBox="0 0 38 38" fill="none" xmlns="http://www.w3.org/2000/svg"><g filter="url(#a)"><path d="M36 18c0 9.392-7.608 17-17 17-9.393 0-17-7.608-17-17C2 8.607 9.607 1 19 1c9.392 0 17 7.607 17 17z" fill="url(#b)"/><path d="M15.884 25.79c-.553 0-.454-.213-.652-.737l-1.615-5.326 10.03-6.262 1.176.312-.977 2.663-7.962 9.35z" fill="#CADAE9"/><path d="M15.883 25.79c.425 0 .609-.197.85-.424.368-.354 5.1-4.958 5.1-4.958l-2.904-.709-2.692 1.7-.354 4.25v.142z" fill="#ABC9DB"/><path d="M16.166 21.456l6.857 5.057c.779.425 1.346.213 1.544-.722l2.79-13.147c.284-1.148-.438-1.658-1.19-1.318L9.792 17.645c-1.12.453-1.105 1.076-.198 1.346l4.207 1.317 9.733-6.134c.453-.283.878-.128.538.184l-7.905 7.098z" fill="url(#c)"/></g><defs><filter id="a" x="0" y="0" width="38" height="38" filterUnits="userSpaceOnUse" color-interpolation-filters="sRGB"><feFlood flood-opacity="0" result="BackgroundImageFix"/><feColorMatrix in="SourceAlpha" values="0 0 0 0 0 0 0 0 0 0 0 0 0 0 0 0 0 0 127 0"/><feOffset dy="1"/><feGaussianBlur stdDeviation="1"/><feColorMatrix values="0 0 0 0 0 0 0 0 0 0 0 0 0 0 0 0 0 0 0.08 0"/><feBlend in2="BackgroundImageFix" result="effect1_dropShadow"/><feBlend in="SourceGraphic" in2="effect1_dropShadow" result="shape"/></filter><linearGradient id="b" x1="23.982" y1="6.373" x2="15.482" y2="26.206" gradientUnits="userSpaceOnUse"><stop stop-color="#37AEE2"/><stop offset="1" stop-color="#1E96C8"/></linearGradient><linearGradient id="c" x1="20.273" y1="18.531" x2="23.815" y2="24.198" gradientUnits="userSpaceOnUse"><stop stop-color="#EFF7FC"/><stop offset="1" stop-color="#fff"/></linearGradient></defs></svg>