<svg width="38" height="38" viewBox="0 0 38 38" fill="none" xmlns="http://www.w3.org/2000/svg"><g filter="url(#a)"><path d="M19 35c9.389 0 17-7.611 17-17S28.389 1 19 1 2 8.611 2 18s7.611 17 17 17z" fill="#3C5A9A"/><path d="M24.527 6.219h-3.766c-2.235 0-4.72.94-4.72 4.18.01 1.128 0 2.209 0 3.426h-2.586v4.114h2.665v11.843h4.898V17.86h3.233l.293-4.047h-3.61s.008-1.8 0-2.323c0-1.28 1.332-1.207 1.412-1.207.634 0 1.866.002 2.183 0V6.219h-.002z" fill="#fff"/></g><defs><filter id="a" x="0" y="0" width="38" height="38" filterUnits="userSpaceOnUse" color-interpolation-filters="sRGB"><feFlood flood-opacity="0" result="BackgroundImageFix"/><feColorMatrix in="SourceAlpha" values="0 0 0 0 0 0 0 0 0 0 0 0 0 0 0 0 0 0 127 0"/><feOffset dy="1"/><feGaussianBlur stdDeviation="1"/><feColorMatrix values="0 0 0 0 0 0 0 0 0 0 0 0 0 0 0 0 0 0 0.08 0"/><feBlend in2="BackgroundImageFix" result="effect1_dropShadow"/><feBlend in="SourceGraphic" in2="effect1_dropShadow" result="shape"/></filter></defs></svg>