<svg width="34" height="34" viewBox="0 0 34 34" fill="none" xmlns="http://www.w3.org/2000/svg"><path d="M17.004 0h-.008C7.622 0 0 7.625 0 17a16.87 16.87 0 0 0 3.236 9.964L1.118 33.28l6.534-2.09A16.853 16.853 0 0 0 17.004 34C26.378 34 34 26.373 34 17c0-9.373-7.622-17-16.996-17z" fill="#4CAF50"/><path d="M26.896 24.004c-.41 1.158-2.038 2.119-3.336 2.4-.888.188-2.049.34-5.954-1.28-4.996-2.07-8.213-7.146-8.464-7.476-.24-.33-2.019-2.688-2.019-5.127 0-2.44 1.239-3.628 1.738-4.138.41-.418 1.088-.61 1.739-.61.21 0 .399.011.569.02.5.02.75.05 1.08.839.41.988 1.408 3.428 1.527 3.678.122.251.243.591.073.92-.16.34-.3.491-.55.78-.252.29-.49.51-.74.82-.23.27-.489.56-.2 1.059.289.489 1.288 2.118 2.758 3.427 1.898 1.69 3.436 2.23 3.987 2.46.41.17.899.129 1.198-.19.38-.41.85-1.09 1.328-1.76.34-.48.77-.54 1.22-.37.46.16 2.888 1.36 3.387 1.61.5.25.83.37.95.58.12.21.12 1.198-.29 2.358z" fill="#FAFAFA"/></svg>