<svg width="38" height="41" viewBox="0 0 38 41" fill="none" xmlns="http://www.w3.org/2000/svg"><path d="M37.999 32.57v5.05a3.394 3.394 0 0 1-1.08 2.494 3.33 3.33 0 0 1-2.556.872 32.812 32.812 0 0 1-14.394-5.168 32.677 32.677 0 0 1-10.007-10.1 33.517 33.517 0 0 1-5.12-14.596A3.396 3.396 0 0 1 5.7 8.549a3.31 3.31 0 0 1 2.46-1.097h5.004a3.317 3.317 0 0 1 2.208.814 3.376 3.376 0 0 1 1.128 2.081 21.78 21.78 0 0 0 1.167 4.73 3.397 3.397 0 0 1-.75 3.553l-2.118 2.138a26.813 26.813 0 0 0 10.007 10.1l2.118-2.137a3.306 3.306 0 0 1 3.52-.758c1.513.57 3.085.966 4.686 1.179.81.115 1.55.527 2.08 1.157.528.63.81 1.434.789 2.26z" fill="#FFC226"/><path d="M34.171 26.117v5.05a3.394 3.394 0 0 1-1.08 2.495 3.33 3.33 0 0 1-2.556.873 32.813 32.813 0 0 1-14.394-5.168A32.677 32.677 0 0 1 6.134 19.265 33.517 33.517 0 0 1 1.014 4.67a3.396 3.396 0 0 1 .858-2.573A3.31 3.31 0 0 1 4.332 1h5.004a3.317 3.317 0 0 1 2.208.814 3.375 3.375 0 0 1 1.128 2.082 21.785 21.785 0 0 0 1.168 4.73 3.396 3.396 0 0 1-.75 3.552l-2.12 2.138a26.812 26.812 0 0 0 10.008 10.101l2.118-2.138a3.306 3.306 0 0 1 3.52-.758c1.513.57 3.085.966 4.686 1.179.81.115 1.55.527 2.08 1.157.529.63.81 1.435.79 2.26z" stroke="#282828" stroke-width="2" stroke-linecap="round" stroke-linejoin="round"/></svg>