<svg width="38" height="41" viewBox="0 0 38 41" fill="none" xmlns="http://www.w3.org/2000/svg"><path d="M38 29.817c0 .989-.388 1.937-1.08 2.636a3.665 3.665 0 0 1-2.606 1.092H12.2L4.828 41V11.18a3.75 3.75 0 0 1 1.08-2.637 3.665 3.665 0 0 1 2.606-1.091h25.8c.978 0 1.915.392 2.606 1.091A3.75 3.75 0 0 1 38 11.179v18.638z" fill="#FFC226"/><path d="M34.172 23.366A3.75 3.75 0 0 1 33.092 26a3.666 3.666 0 0 1-2.606 1.092H8.372L1 34.548V4.728a3.75 3.75 0 0 1 1.08-2.636A3.665 3.665 0 0 1 4.686 1h25.8c.978 0 1.915.393 2.607 1.092a3.75 3.75 0 0 1 1.08 2.636v18.638z" stroke="#282828" stroke-width="2" stroke-linecap="round" stroke-linejoin="round"/></svg>