<svg width="48" height="61" viewBox="0 0 48 61" fill="none" xmlns="http://www.w3.org/2000/svg"><path d="M22.815 37.573c-.095-.06-.287-.174-.287-.457V11.59c0-3.634-2.99-6.59-6.664-6.59-3.674 0-6.663 2.956-6.663 6.59v25.55c0 .239-.194.373-.289.433C5.24 39.906 3 43.918 3 48.278 3 55.293 8.77 61 15.864 61c7.094 0 12.865-5.707 12.865-12.722 0-4.361-2.241-8.374-5.914-10.705zm24.774 9.097l-5.43-6.949c-.38-.485-.93-.764-1.508-.764-.579 0-1.129.279-1.508.764l-5.43 6.949c-.429.547-.528 1.155-.274 1.668.255.513.802.807 1.502.807h1.28c.17 0 .313.142.313.31v7.623c0 1.194.983 2.165 2.19 2.165h3.55c1.208 0 2.19-.971 2.19-2.165v-7.624c0-.167.144-.31.313-.31h1.583c.7 0 1.247-.293 1.502-.806.254-.513.155-1.12-.273-1.668z" fill="#FFC226"/><path d="M19.815 32.573c-.095-.06-.287-.174-.287-.457V6.59c0-3.634-2.99-6.59-6.664-6.59C9.19 0 6.201 2.956 6.201 6.59v25.55c0 .239-.194.373-.289.433C2.24 34.906 0 38.918 0 43.278 0 50.293 5.771 56 12.864 56c7.094 0 12.865-5.707 12.865-12.722 0-4.361-2.241-8.374-5.914-10.705zm-6.95 21.107c-5.8 0-10.519-4.666-10.519-10.402 0-3.85 2.138-7.37 5.58-9.184l.144-.076s.477-.188.477-.942V6.59c0-2.355 1.937-4.27 4.317-4.27s4.317 1.915 4.317 4.27v26.496c0 .744.506.947.506.947l.115.061c3.442 1.814 5.58 5.333 5.58 9.184 0 5.736-4.718 10.402-10.518 10.402z" fill="#282828"/><path d="M14.936 38.386c-.115-.044-.35-.115-.35-.501V11.677c0-.94-.771-1.701-1.721-1.701-.95 0-1.721.761-1.721 1.701v26.208c0 .373-.259.465-.385.514-2.197.838-3.76 2.948-3.76 5.413 0 3.2 2.631 5.801 5.866 5.801 3.234 0 5.866-2.602 5.866-5.8 0-2.478-1.58-4.598-3.795-5.427zm15.751-31.35h9.234a.933.933 0 0 0 .939-.928.933.933 0 0 0-.939-.928h-9.234a.934.934 0 0 0-.939.928c0 .513.42.928.939.928zm0 5.982H43.05a.934.934 0 0 0 .939-.929.933.933 0 0 0-.94-.928H30.688a.934.934 0 0 0-.939.928c0 .513.42.929.939.929zm0 5.982h9.234a.933.933 0 0 0 .939-.929.933.933 0 0 0-.939-.928h-9.234a.934.934 0 0 0-.939.928c0 .512.42.928.939.928zm12.363 5.98a.933.933 0 0 0 .939-.928.933.933 0 0 0-.94-.928H30.688a.934.934 0 0 0-.939.928c0 .513.42.929.939.929H43.05zm1.538 16.69l-5.43-6.949c-.38-.485-.93-.764-1.508-.764s-1.128.279-1.508.764l-5.43 6.949c-.428.547-.528 1.155-.273 1.668.254.513.802.807 1.501.807h1.28c.17 0 .314.142.314.31v7.623c0 1.194.982 2.165 2.19 2.165h3.55c1.207 0 2.19-.971 2.19-2.165v-7.624c0-.167.143-.31.313-.31h1.583c.7 0 1.247-.293 1.501-.806.255-.513.155-1.12-.273-1.668zm-2.113.619h-.698c-1.208 0-2.19.971-2.19 2.165v7.624c0 .167-.144.31-.313.31h-3.55a.315.315 0 0 1-.313-.31v-7.624c0-1.194-.982-2.165-2.19-2.165h-.435c-.178 0-.11-.096-.11-.096l4.709-6.026s.13-.161.265-.161c.142 0 .274.172.274.172l4.693 6.005s.085.106-.142.106z" fill="#282828"/></svg>