<svg width="59" height="61" viewBox="0 0 59 61" fill="none" xmlns="http://www.w3.org/2000/svg"><path d="M10 24l22.5-10L55 24v27L32.5 61 10 51V24z" fill="#FFC226"/><path d="M40.563 39.87a1.152 1.152 0 1 0 0 2.305 1.152 1.152 0 0 0 0-2.305zm-9.911-20.28a1.153 1.153 0 1 0-2.305 0 1.153 1.153 0 0 0 2.305 0zM18.438 42.174a1.153 1.153 0 1 0-.002-2.305 1.153 1.153 0 0 0 .002 2.305z" fill="#282828"/><path d="M58.315 47.65l-6.23-2.768V19.59c0-.456-.273-.879-.707-1.063L30.652 9.612v-8.46a1.153 1.153 0 0 0-2.304 0v8.46L7.622 18.526a1.16 1.16 0 0 0-.707 1.063v25.293L.685 47.65a1.152 1.152 0 0 0 .936 2.106l6.453-2.867 20.97 9.019c.278.12.617.126.912 0l20.97-9.02 6.453 2.868a1.152 1.152 0 1 0 .936-2.106zM28.348 12.12v2.86a1.152 1.152 0 0 0 2.304 0v-2.86l17.365 7.47L29.5 27.552 10.983 19.59l17.365-7.468zm-13.07 30.306a1.153 1.153 0 0 0-1.52-.585l-4.54 2.017v-22.52l19.13 8.228V53.1l-17.405-7.486 3.75-1.666c.582-.26.844-.94.586-1.522zM30.653 53.1V29.566l19.129-8.227v22.52l-4.539-2.017a1.152 1.152 0 1 0-.936 2.106l3.75 1.666L30.653 53.1z" fill="#282828"/></svg>