<svg width="62" height="41" viewBox="0 0 62 41" fill="none" xmlns="http://www.w3.org/2000/svg"><path d="M25 21.079C25 17.169 21.866 14 18 14s-7 3.17-7 7.079V33.92c0 3.911 3.134 7.08 7 7.08s7-3.17 7-7.079V21.08z" fill="#FFC226"/><path d="M8.6 30.218l-5.607-.353A1.054 1.054 0 0 1 2 28.814V16.592a1.054 1.054 0 0 1 .993-1.053l5.607-.352" stroke="#282828" stroke-width="2.4" stroke-linecap="round" stroke-linejoin="round"/><path d="M21.057 23.891v5.31a6.246 6.246 0 0 1-6.243 6.246 6.242 6.242 0 0 1-6.243-6.245V27.1m-.001-4.382V16a6.246 6.246 0 0 1 6.244-6.245A6.242 6.242 0 0 1 21.057 16v3.187" stroke="#282828" stroke-width="2.4" stroke-linecap="round" stroke-linejoin="round"/><path d="M16.972 17h-3.944C12.46 17 12 17.607 12 18.355v9.29c0 .748.46 1.355 1.028 1.355h3.944C17.54 29 18 28.393 18 27.645v-9.29c0-.748-.46-1.355-1.028-1.355z" stroke="#282828" stroke-width="2.4" stroke-linecap="round" stroke-linejoin="round"/><path d="M62 27.02s-4.217 7.87-11.95 7.87a7.866 7.866 0 0 1-7.868-7.87 7.872 7.872 0 0 1 7.867-7.871c8.398 0 11.951 7.87 11.951 7.87z" fill="#FFC226"/><path d="M17.908 2H11.72a1.627 1.627 0 0 0 0 3.254h6.187a1.627 1.627 0 0 0 0-3.254zm13.831 12.849h4.124a.597.597 0 0 1 .597.597v13.737a.597.597 0 0 1-.597.598h-4.124V14.849zM21.022 29.333s1.148-4.595 10.397.446M21.022 15.335s1.148 4.595 10.397-.446M59.45 21.85s-5.262 7.952-12.035 7.952a7.95 7.95 0 0 1-7.564-5.505 3.015 3.015 0 0 0 1.784.582c2.58 0 4.585-3.03 4.585-3.03s-1.859-3.03-4.584-3.03c-.642 0-1.267.203-1.784.582a7.955 7.955 0 0 1 7.565-5.505c4.49 0 8.082 3.127 10.135 5.459l-2.361 2.617" stroke="#282828" stroke-width="2.4" stroke-linecap="round" stroke-linejoin="round"/></svg>