<svg width="49" height="61" viewBox="0 0 49 61" fill="none" xmlns="http://www.w3.org/2000/svg"><path d="M46.99 46.257a12.371 12.371 0 0 0-4.912-4.398 1.09 1.09 0 0 0-.622-.285 11.47 11.47 0 0 0-4.504-.918h-3.285v-2.885a12.544 12.544 0 0 0 3.93-6.193h.45a4.383 4.383 0 0 0 4.382-4.375 4.354 4.354 0 0 0-1.164-2.965 3.257 3.257 0 0 0 1.163-2.504c0-1.44-.933-2.665-2.228-3.105-.386-5.03-3.921-9.328-8.788-10.675C31.124 6.45 29.881 5 28.191 5H23.81c-1.69 0-2.934 1.45-3.222 2.954-4.867 1.347-8.4 5.644-8.788 10.673a3.28 3.28 0 0 0-1.266.787 3.273 3.273 0 0 0 .202 4.823 4.355 4.355 0 0 0-1.165 2.966 4.383 4.383 0 0 0 4.381 4.375h.447a12.568 12.568 0 0 0 3.934 6.192v2.886h-3.285a11.47 11.47 0 0 0-4.504.918 1.09 1.09 0 0 0-.622.285 12.372 12.372 0 0 0-4.912 4.398A12.424 12.424 0 0 0 3 53.016v6.89C3 60.51 3.49 61 4.095 61h43.81C48.51 61 49 60.51 49 59.906v-6.89c0-2.389-.695-4.726-2.01-6.759z" fill="#FFC226"/><path d="M33.952 46.922a1.095 1.095 0 1 0 0 2.19 1.095 1.095 0 0 0 0-2.19zm-21.905 0a1.095 1.095 0 1 0 0 2.19 1.095 1.095 0 0 0 0-2.19z" fill="#282828"/><path d="M43.99 41.257a12.371 12.371 0 0 0-4.912-4.398 1.09 1.09 0 0 0-.622-.285 11.47 11.47 0 0 0-4.504-.918h-3.285v-2.885a12.544 12.544 0 0 0 3.93-6.193h.45a4.383 4.383 0 0 0 4.382-4.375 4.354 4.354 0 0 0-1.164-2.965 3.257 3.257 0 0 0 1.163-2.504c0-1.44-.933-2.665-2.228-3.105-.386-5.03-3.921-9.328-8.788-10.675C28.124 1.45 26.881 0 25.191 0H20.81c-1.69 0-2.934 1.45-3.222 2.954-4.867 1.347-8.4 5.644-8.788 10.673a3.28 3.28 0 0 0-1.266.787 3.273 3.273 0 0 0 .202 4.823 4.355 4.355 0 0 0-1.165 2.966 4.383 4.383 0 0 0 4.381 4.375h.447a12.568 12.568 0 0 0 3.934 6.192v2.886h-3.285a11.47 11.47 0 0 0-4.504.918 1.09 1.09 0 0 0-.622.285 12.372 12.372 0 0 0-4.912 4.398A12.424 12.424 0 0 0 0 48.016v6.89C0 55.51.49 56 1.095 56h43.81C45.51 56 46 55.51 46 54.906v-6.89c0-2.389-.695-4.726-2.01-6.759zM6.57 53.813H2.19v-5.797c0-3.327 1.706-6.516 4.38-8.409v14.206zM35.048 24.39h-.05c.032-.364.05-.73.05-1.094v-3.281c1.207 0 2.19.98 2.19 2.187a2.192 2.192 0 0 1-2.19 2.188zM17.524 5.265v4.907a1.094 1.094 0 0 0 2.19 0V3.609c0-.677.574-1.421 1.096-1.421h4.38c.522 0 1.096.744 1.096 1.421v6.563a1.094 1.094 0 0 0 2.19 0V5.265a9.89 9.89 0 0 1 6.51 8.188H11.014a9.89 9.89 0 0 1 6.51-8.188zm-6.572 19.126a2.191 2.191 0 0 1-2.19-2.188c0-1.206.983-2.187 2.19-2.187v3.28c0 .366.018.73.05 1.095h-.05zm0-6.563H9.857a1.095 1.095 0 0 1-.775-1.867 1.09 1.09 0 0 1 .775-.32h26.286a1.095 1.095 0 0 1 .775 1.866 1.092 1.092 0 0 1-.775.321H10.952zm2.39 7.458l-.007-.036a10.07 10.07 0 0 1-.192-1.953v-3.281h19.714v3.28c0 .655-.065 1.311-.192 1.954l-.007.035a10.359 10.359 0 0 1-3.816 6.152c-1.714 1.33-3.734 2.032-5.842 2.032-2.108 0-4.128-.703-5.843-2.033a10.367 10.367 0 0 1-3.815-6.15zm8.563 28.526h-8.762v-2.515a1.095 1.095 0 0 0-2.19 0v2.516H8.761v-15.37a9.276 9.276 0 0 1 2.19-.535v6.826a1.094 1.094 0 0 0 2.19 0v-6.89h2.817l5.946 6.234v9.734zm-4.381-17.5v-2.037A11.523 11.523 0 0 0 23 35.656c1.925 0 3.786-.474 5.476-1.38v2.036L23 42.056l-5.476-5.742zm19.714 17.5h-2.19v-2.515a1.094 1.094 0 0 0-2.19 0v2.516h-8.763v-9.735l5.946-6.234h2.816v6.89a1.094 1.094 0 0 0 2.19 0v-6.826c.748.088 1.48.267 2.191.535v15.37zm6.572 0h-4.381V39.608c2.674 1.893 4.38 5.082 4.38 8.409v5.797z" fill="#282828"/></svg>