<svg width="122" height="87" viewBox="0 0 122 87" fill="none" xmlns="http://www.w3.org/2000/svg"><path d="M0 0h121v79a8.001 8.001 0 0 1-8 8H8a8 8 0 0 1-8-8V0z" fill="#FE4544"/><path d="M59.746 35.39v15.692h-4.349l-5.963-7.13v7.13h-5.156V35.389h4.349l5.963 7.13v-7.13h5.156zm15.597 11.701v3.99H62.295V35.39h12.756v3.99h-7.555v1.839h6.636v3.81h-6.636v2.063h7.847zm27.352-11.701l-5.022 15.692h-5.672l-2.533-8.385-2.668 8.385h-5.67l-5.022-15.693h5.447l2.735 8.922 2.892-8.922h4.865l2.735 9.035 2.892-9.035h5.022zM50.667 67.881l-1.188 1.323v3.878h-5.201V57.39h5.2v5.695l5.157-5.695h5.761l-6.277 6.905 6.591 8.788h-6.12l-3.923-5.2z" fill="#fff"/><path d="M69.078 73.44c-1.689 0-3.206-.35-4.55-1.053-1.346-.702-2.4-1.674-3.162-2.914-.762-1.256-1.143-2.668-1.143-4.237 0-1.57.38-2.974 1.143-4.215.762-1.255 1.816-2.234 3.161-2.937 1.345-.702 2.862-1.053 4.55-1.053 1.69 0 3.207.351 4.552 1.053 1.345.703 2.398 1.682 3.16 2.937.763 1.24 1.144 2.645 1.144 4.215 0 1.569-.381 2.981-1.143 4.237-.763 1.24-1.816 2.212-3.161 2.914-1.345.703-2.862 1.054-4.551 1.054zm0-4.281c.657 0 1.248-.157 1.77-.47a3.525 3.525 0 0 0 1.279-1.368c.314-.598.47-1.293.47-2.085s-.156-1.48-.47-2.063c-.314-.598-.74-1.053-1.278-1.367a3.258 3.258 0 0 0-1.771-.493c-.658 0-1.255.164-1.794.493-.523.314-.941.77-1.255 1.367-.314.583-.47 1.27-.47 2.063 0 .792.156 1.487.47 2.085a3.583 3.583 0 0 0 1.255 1.367c.538.314 1.136.47 1.794.47zm13.964-7.667h-4.596v-4.103h14.482v4.103h-4.596v11.59h-5.29v-11.59zm24.308 7.6v3.99H94.302V57.39h12.756v3.99h-7.555v1.84h6.636v3.81h-6.636v2.063h7.847zm2.036-11.702h5.291v11.59h7.084v4.102h-12.375V57.39z" fill="#fff"/><path fill-rule="evenodd" clip-rule="evenodd" d="M12.244 43H33a2.9 2.9 0 0 1 3 3l-.011 24.651A3.31 3.31 0 0 1 32.718 74H12.274A3.31 3.31 0 0 1 9 70.651V46.182A3.21 3.21 0 0 1 12.244 43zm19.575 32.849v1.491a2.059 2.059 0 1 1-4.112 0v-1.491h4.112zm-15.023 0v1.491a2.059 2.059 0 1 1-4.112 0v-1.491H16.8h-.004zM27 43h4.015v-8H27v8zm-4.49 10.007a9.4 9.4 0 0 1 9.506 9.289 9.169 9.169 0 0 1-.166 1.7h-.033c-.267.471-2.793.865-6.238 1.014a2.994 2.994 0 0 0-.644-1.371L27.4 56.81a.557.557 0 0 0-.28-.752.592.592 0 0 0-.777.271l-4.459 6.227a3.067 3.067 0 0 0-2.444 2.453c-3.438-.148-5.958-.542-6.225-1.013h-.045A9.153 9.153 0 0 1 13 62.3a9.402 9.402 0 0 1 9.51-9.293z" fill="#fff"/></svg>