<svg width="32" height="41" viewBox="0 0 32 41" fill="none" xmlns="http://www.w3.org/2000/svg"><path fill-rule="evenodd" clip-rule="evenodd" d="M18.438 41S32 31.85 32 21.176c0-3.64-1.429-7.13-3.972-9.705a13.482 13.482 0 0 0-9.59-4.02 13.482 13.482 0 0 0-9.59 4.02 13.808 13.808 0 0 0-3.973 9.705C4.875 31.85 18.438 41 18.438 41zm4.52-19.824c0 2.527-2.024 4.575-4.52 4.575-2.497 0-4.521-2.048-4.521-4.575s2.024-4.575 4.52-4.575c2.497 0 4.521 2.048 4.521 4.575z" fill="#FFC226"/><path d="M28.125 14.724c0 10.675-13.563 19.824-13.563 19.824S1 25.398 1 14.724c0-3.64 1.429-7.13 3.972-9.704A13.482 13.482 0 0 1 14.562 1c3.598 0 7.047 1.446 9.59 4.02a13.808 13.808 0 0 1 3.973 9.704z" stroke="#282828" stroke-width="2" stroke-linecap="round" stroke-linejoin="round"/><path d="M14.562 19.3c2.497 0 4.521-2.05 4.521-4.576s-2.024-4.575-4.52-4.575c-2.497 0-4.522 2.049-4.522 4.575 0 2.527 2.025 4.575 4.521 4.575z" stroke="#282828" stroke-width="2" stroke-linecap="round" stroke-linejoin="round"/></svg>