<svg width="61" height="63" viewBox="0 0 61 63" fill="none" xmlns="http://www.w3.org/2000/svg"><path d="M57.437 26.22c3.05-3.055 4.263-7.561 3.165-11.758l-.534-2.042-7.376 7.392-4.919-1.207-1.205-4.933 7.372-7.388-2.033-.534a12.232 12.232 0 0 0-11.74 3.173 12.197 12.197 0 0 0-3.196 11.651l-3.548 3.556a5.018 5.018 0 0 1-1.929-3.314l-.054-.403L18.92 7.849c-3.606-3.621-9.451-3.817-13.029-.434a9.16 9.16 0 0 0-2.89 6.571A9.157 9.157 0 0 0 5.69 20.64l12.758 12.804.406.054c1.312.177 2.48.903 3.277 1.949l-3.473 3.48a12.14 12.14 0 0 0-11.63 3.203c-3.05 3.056-4.263 7.562-3.165 11.76l.534 2.041 7.376-7.392 4.919 1.208 1.205 4.933-7.372 7.389 2.034.533a12.232 12.232 0 0 0 11.74-3.173 12.205 12.205 0 0 0 3.195-11.652l6.405-6.418L44.653 52.21l1.184 4.236 9.873 6.547 5.175-5.192-6.52-9.902-4.217-1.189L39.39 35.855l6.417-6.43a12.138 12.138 0 0 0 11.63-3.204z" fill="#FFC226"/><path d="M54.437 21.22c3.05-3.055 4.263-7.561 3.165-11.758l-.534-2.042-7.376 7.392-4.919-1.207-1.205-4.933 7.372-7.388L48.907.75a12.232 12.232 0 0 0-11.74 3.173 12.197 12.197 0 0 0-3.196 11.651l-3.548 3.556a5.018 5.018 0 0 1-1.929-3.314l-.054-.403L15.92 2.849C12.314-.772 6.469-.968 2.891 2.415a9.16 9.16 0 0 0-2.89 6.571A9.157 9.157 0 0 0 2.69 15.64l12.758 12.804.406.054c1.312.177 2.48.903 3.278 1.949l-3.474 3.48a12.14 12.14 0 0 0-11.63 3.203C.977 40.185-.236 44.691.862 48.89l.534 2.041 7.376-7.392 4.919 1.208 1.205 4.933-7.372 7.389 2.033.533a12.232 12.232 0 0 0 11.74-3.173 12.205 12.205 0 0 0 3.196-11.652l6.405-6.418L41.653 47.21l1.184 4.236 9.873 6.547 5.175-5.192-6.52-9.902-4.217-1.189L36.39 30.855l6.417-6.43a12.138 12.138 0 0 0 11.63-3.204zm-4.595 23.762l4.943 7.506-2.388 2.397-7.474-4.956-1.111-3.974L32.607 34.65l2.075-2.082 11.197 11.3 3.963 1.115zM16.595 26.17L4.401 13.933a6.756 6.756 0 0 1-1.984-4.91A6.765 6.765 0 0 1 4.552 4.17c2.633-2.488 6.966-2.317 9.656.385l11.96 12a7.444 7.444 0 0 0 2.536 4.296l-7.84 7.856a7.446 7.446 0 0 0-4.269-2.537zm18.094 2.968l-.002-.002-2.056 2.063-10.868 10.89.222.7a9.804 9.804 0 0 1-2.397 9.932c-1.907 1.91-4.532 2.91-7.166 2.86l5.145-5.157-1.877-7.676-7.666-1.883-5.141 5.152a9.852 9.852 0 0 1 2.855-7.182 9.75 9.75 0 0 1 9.904-2.402l.702.225L36.701 16.26l-.222-.7a9.8 9.8 0 0 1 2.397-9.93c1.907-1.909 4.541-2.896 7.166-2.86l-5.145 5.156 1.877 7.678 7.666 1.88 5.141-5.152a9.852 9.852 0 0 1-2.855 7.182 9.753 9.753 0 0 1-9.904 2.403l-.702-.224-7.431 7.445z" fill="#282828"/><path d="M25.711 30.993l-1.605 1.61 1.71 1.706 1.605-1.61-1.71-1.706zm3.917-3.924l-1.605 1.609 1.71 1.706 1.605-1.608-1.71-1.707zm3.916-3.925l-1.605 1.61 1.71 1.706 1.605-1.609-1.71-1.707zM11.876 6.6l-1.712 1.708L21.71 19.894l1.712-1.706L11.877 6.6zm-3.499 3.512L6.665 11.82l11.546 11.586 1.712-1.706L8.377 10.112z" fill="#282828"/></svg>