<svg width="65" height="66" viewBox="0 0 65 66" fill="none" xmlns="http://www.w3.org/2000/svg"><path d="M11.847 65.134a1.086 1.086 0 0 0 1.014.706h50.852a1.08 1.08 0 0 0 .378-.077c.024-.01.048-.016.07-.027.11-.05.21-.118.297-.2.017-.017.03-.035.045-.052a.966.966 0 0 0 .1-.108c.033-.053.062-.108.086-.164.008-.017.018-.03.024-.047a1.07 1.07 0 0 0 .075-.37c0-.014.007-.026.007-.039V22.383a4.354 4.354 0 0 0-1.267-3.073 4.319 4.319 0 0 0-3.06-1.273H56.14a4.32 4.32 0 0 0-3.06 1.273 4.355 4.355 0 0 0-1.268 3.073v2.173h-3.246V9.346a4.354 4.354 0 0 0-1.268-3.073A4.319 4.319 0 0 0 44.238 5H8.533a4.319 4.319 0 0 0-3.06 1.273 4.355 4.355 0 0 0-1.268 3.073v2.172a1.088 1.088 0 0 0 1.082 1.087h3.246v24.988H6.246a3.235 3.235 0 0 0-2.668 1.402 3.267 3.267 0 0 0-.371 3l8.64 23.14z" fill="#FFC226"/><path d="M39.074 17.383h-27.05v2.172h27.05v-2.172zm0 4.345h-27.05v2.173h27.05v-2.173zm-4.328 4.346H12.025v2.173h22.721v-2.173zm4.328-13.037H20.68v2.173h18.394v-2.173z" fill="#282828"/><path d="M8.847 60.134a1.086 1.086 0 0 0 1.014.706h50.852a1.08 1.08 0 0 0 .378-.077c.024-.01.048-.016.07-.027.11-.05.21-.118.297-.2.017-.017.03-.035.045-.052a.966.966 0 0 0 .1-.108c.033-.053.062-.107.086-.164.008-.017.018-.03.024-.047a1.07 1.07 0 0 0 .075-.37c0-.014.007-.026.007-.039V17.383a4.354 4.354 0 0 0-1.267-3.073 4.319 4.319 0 0 0-3.06-1.273H53.14a4.32 4.32 0 0 0-3.06 1.273 4.355 4.355 0 0 0-1.268 3.073v2.173h-3.246V4.346a4.354 4.354 0 0 0-1.268-3.073A4.319 4.319 0 0 0 41.238 0H5.533a4.319 4.319 0 0 0-3.06 1.273 4.355 4.355 0 0 0-1.268 3.073v2.173a1.083 1.083 0 0 0 1.082 1.086h3.246v24.988H3.246a3.235 3.235 0 0 0-2.668 1.402 3.267 3.267 0 0 0-.371 3l8.64 23.14zm41.047-38.406c.287 0 .562-.114.765-.318.203-.204.317-.48.317-.768v-3.26c0-.576.228-1.128.633-1.536a2.16 2.16 0 0 1 1.53-.636h4.328a2.16 2.16 0 0 1 1.53.636c.406.408.634.96.634 1.537v36.379l-7.116-19.053a3.271 3.271 0 0 0-1.191-1.533 3.25 3.25 0 0 0-1.848-.583h-3.91V21.728h4.328zM3.369 4.346c0-.577.228-1.13.634-1.537a2.16 2.16 0 0 1 1.53-.636h31.958a4.326 4.326 0 0 0-.58 2.173v1.086H3.368V4.346zm4.328 3.259h30.295a1.083 1.083 0 0 0 1.082-1.086V4.346c0-.577.228-1.13.634-1.537a2.16 2.16 0 0 1 3.06 0c.406.408.634.96.634 1.537v28.247H7.697V7.605zm-5.34 27.628a1.072 1.072 0 0 1 .889-.468h46.23a1.08 1.08 0 0 1 1.013.706l8.663 23.196H10.611L2.233 36.233a1.079 1.079 0 0 1 .123-1z" fill="#282828"/><path d="M57.467 17.383h-2.163v2.172h2.163v-2.172zm-38.95-4.346h-2.165v2.173h2.165v-2.173z" fill="#282828"/></svg>