<svg width="45" height="44" viewBox="0 0 45 44" fill="none" xmlns="http://www.w3.org/2000/svg"><path d="M43.114 11.18l-8.2-9.331L33.29 0H13.913c-2.604 0-4.71 2.066-4.71 4.62v5.874h2.919l-.002-4.748c.006-1.436 1.182-2.597 2.642-2.597l16.576-.015v7.703c.002 2.868 2.363 5.192 5.288 5.192h5.74l-.285 22.216c-.006 1.43-1.182 2.584-2.642 2.594l-24.887-.012c-1.331 0-2.403-1.28-2.412-2.862v-1.88H9.218v2.805c0 2.82 1.925 5.11 4.29 5.11l26.782-.007c2.602 0 4.71-2.077 4.71-4.624V13.331l-1.886-2.15z" fill="#434440"/><path d="M30.374 37.517H0V9.06h30.374v28.456zM2.916 34.653h24.537V11.924H2.916" fill="#EA4C3A"/><path d="M15.55 13.41c.46.208.365.484.223 1.776-.146 1.338-.624 3.777-1.556 6.172-.928 2.399-2.305 4.748-3.505 6.493-1.202 1.742-2.229 2.874-3.013 3.53-.782.651-1.33.826-1.68.885-.352.06-.512 0-.611-.173-.095-.175-.127-.466-.047-.815.08-.346.273-.754.817-1.276.543-.524 1.442-1.161 2.691-1.758 1.25-.594 2.852-1.146 4.165-1.524a29.797 29.797 0 0 1 3.236-.74c.897-.16 1.664-.277 2.418-.334.754-.06 1.49-.06 2.212 0 .72.057 1.425.173 2.032.32.613.143 1.124.32 1.572.594.45.276.832.652 1.026 1.074.192.423.192.887.032 1.22-.158.336-.48.538-.849.652a2.11 2.11 0 0 1-1.283 0c-.498-.145-1.074-.464-1.681-.886-.61-.42-1.25-.944-2.082-1.756a36.686 36.686 0 0 1-2.725-2.992c-.864-1.075-1.57-2.12-2.047-3.007a10.935 10.935 0 0 1-.946-2.34c-.208-.726-.368-1.45-.433-2.103a7.28 7.28 0 0 1 .032-1.7c.063-.465.16-.813.321-1.047.16-.232.386-.347.546-.406.16-.06.255-.06.353-.073.095-.013.19-.043.335 0 .141.045.325.154.512.266" stroke="#EA4C3A" stroke-width=".75" stroke-miterlimit="10" stroke-linejoin="round"/></svg>