<svg width="153" height="109" viewBox="0 0 153 109" fill="none" xmlns="http://www.w3.org/2000/svg"><path d="M65.33 52v20h-5.435l-7.452-9.086V72H46V52h5.435l7.452 9.086V52h6.443zm19.49 14.914V72H68.516V52h15.94v5.086h-9.441v2.343h8.292v4.857h-8.292v2.628h9.805zM119 52l-6.275 20h-7.088l-3.166-10.686L99.138 72H92.05l-6.275-20h6.807L96 63.371 99.614 52h6.079l3.418 11.514L112.725 52H119zM53.998 93.224l-1.487 1.612v4.727H46V80.437h6.511v6.94l6.455-6.94h7.212l-7.858 8.416 8.251 10.71H58.91l-4.912-6.339z" fill="#FE4544"/><path d="M77.047 100c-2.114 0-4.013-.428-5.697-1.284-1.684-.856-3.003-2.04-3.957-3.552-.955-1.53-1.432-3.251-1.432-5.164 0-1.913.477-3.625 1.431-5.137.955-1.53 2.274-2.723 3.958-3.579C73.034 80.428 74.933 80 77.047 80s4.013.428 5.697 1.284c1.684.856 3.003 2.05 3.957 3.58.954 1.511 1.431 3.223 1.431 5.136 0 1.913-.477 3.634-1.43 5.164-.955 1.512-2.274 2.696-3.958 3.552-1.684.856-3.583 1.284-5.697 1.284zm0-5.219c.823 0 1.562-.19 2.217-.573a4.344 4.344 0 0 0 1.6-1.667c.392-.729.589-1.576.589-2.541 0-.965-.197-1.803-.59-2.514-.392-.728-.925-1.284-1.6-1.666-.654-.401-1.393-.601-2.216-.601-.823 0-1.572.2-2.245.6-.655.383-1.18.939-1.572 1.667-.393.71-.59 1.549-.59 2.514 0 .965.197 1.812.59 2.541.393.71.917 1.266 1.572 1.667a4.466 4.466 0 0 0 2.245.573zm17.481-9.344h-5.753v-5h18.13v5h-5.754v14.126h-6.623V85.437zm30.431 9.263v4.863h-16.334V80.437h15.969v4.864h-9.458v2.24h8.307v4.645h-8.307v2.513h9.823zm2.549-14.263h6.624v14.126H143v5h-15.492V80.437z" fill="#FE4544"/><path fill-rule="evenodd" clip-rule="evenodd" d="M5.085 62.065H31.22a3.657 3.657 0 0 1 3.526 2.31c.184.466.27.964.252 1.465l-.014 31.014a4.158 4.158 0 0 1-2.527 3.878 4.167 4.167 0 0 1-1.592.335H5.123a4.153 4.153 0 0 1-2.935-1.252A4.164 4.164 0 0 1 1 96.853V66.069a4.036 4.036 0 0 1 2.533-3.712 4.045 4.045 0 0 1 1.552-.292zm24.648 41.329v1.876a2.587 2.587 0 0 1-1.564 2.519 2.596 2.596 0 0 1-3.458-1.486 2.587 2.587 0 0 1-.155-1.033v-1.876h5.177zm-18.916 0v1.876a2.587 2.587 0 0 1-1.565 2.519 2.596 2.596 0 0 1-3.458-1.486 2.587 2.587 0 0 1-.155-1.033v-1.876h5.183-.005zm12.848-41.329h5.056V52h-5.056v10.065zm-5.653 12.59a11.841 11.841 0 0 1 8.406 3.367 11.822 11.822 0 0 1 3.563 8.32 11.519 11.519 0 0 1-.209 2.139h-.041c-.337.593-3.517 1.088-7.855 1.276a3.766 3.766 0 0 0-.81-1.725l3.103-8.592a.7.7 0 0 0-.353-.946.746.746 0 0 0-.978.34l-5.615 7.835a3.86 3.86 0 0 0-3.077 3.087c-4.329-.187-7.502-.682-7.838-1.275H6.25a11.511 11.511 0 0 1-.214-2.134A11.818 11.818 0 0 1 9.6 78.022a11.838 11.838 0 0 1 8.412-3.367z" fill="#FE4544"/></svg>