<svg width="45" height="45" viewBox="0 0 45 45" fill="none" xmlns="http://www.w3.org/2000/svg"><path d="M43.113 11.433L34.91 1.89 33.289 0h-19.38c-2.6 0-4.705 2.114-4.705 4.725v6.006h2.918l-.002-4.856a2.648 2.648 0 0 1 2.64-2.656l16.574-.015v7.876c.001 2.934 2.365 5.31 5.29 5.31h5.737l-.282 22.725a2.658 2.658 0 0 1-2.642 2.651l-24.884-.01c-1.332 0-2.404-1.313-2.41-2.928v-1.92H9.219v2.865c0 2.886 1.925 5.227 4.288 5.227l26.782-.009c2.6 0 4.71-2.124 4.71-4.726V13.633l-1.886-2.2z" fill="#434440"/><path d="M30.372 38.37H0V9.267h30.372v29.101zM2.918 35.44h24.531V12.197H2.918" fill="#2372BA"/><path d="M25.623 17.973L21.185 31.5H17.5l-2.536-7.84-2.66 7.84H8.632L4.486 17.973h3.776l2.415 8.742 2.942-8.742h2.872l2.737 8.742 2.625-8.742h3.77z" fill="#2372BA"/></svg>